<svg width="129" height="23" viewBox="0 0 129 23" fill="none" xmlns="http://www.w3.org/2000/svg">
<path d="M18.4478 8.73691V5.28561H14.9945V2.11943L12.4295 2.12441C12.1114 2.12441 11.7875 2.14136 11.4645 2.17526C6.77898 2.66673 3.24494 6.59156 3.24494 11.3059C3.24494 16.3692 7.36517 20.4875 12.4295 20.4875C17.1468 20.4875 21.0737 16.9524 21.5631 12.266C21.597 11.946 21.614 11.623 21.614 11.3059V8.73691H18.4478ZM12.4305 16.7879C9.40684 16.7879 6.94746 14.3286 6.94746 11.3059C6.94746 8.36606 9.33905 5.90868 12.2739 5.82793H14.4552V9.27923H17.9055V11.597C17.753 14.508 15.3474 16.7879 12.4305 16.7879Z" fill="#FF5000"/>
<path d="M33.1343 10.5044C31.7685 10.0817 30.5891 9.71687 30.5891 8.60731C30.5891 7.69115 31.4774 7.07606 32.7983 7.07606C34.0325 7.07606 34.7981 7.41301 35.4441 8.24045L35.483 8.29029L36.3931 7.4499L36.3642 7.40803C35.7003 6.43505 34.4262 5.89871 32.7764 5.89871C30.3349 5.89871 29.2413 7.26946 29.2413 8.62825C29.2413 10.5553 31.0098 11.1165 32.571 11.611C33.9437 12.0466 35.2397 12.4574 35.2397 13.6935C35.2397 14.7822 34.3445 15.4581 32.903 15.4581C31.5621 15.4581 30.4207 14.9566 29.7707 14.0823L29.7298 14.0275L28.8186 14.9387L28.8505 14.9796C29.6909 16.0462 31.0996 16.6344 32.8182 16.6344C35.1201 16.6344 36.6075 15.4631 36.6075 13.6507C36.6085 11.5801 34.7622 11.0089 33.1343 10.5044Z" fill="black"/>
<path d="M45.5827 6.13298V11.9141C45.5827 13.9079 44.3714 15.2467 42.568 15.2467C40.7626 15.2467 39.5952 13.9388 39.5952 11.9141V6.13298H38.2275V12.0417C38.2275 14.7263 39.9721 16.5307 42.568 16.5307C45.1899 16.5307 46.9504 14.7273 46.9504 12.0417V6.13298H45.5827Z" fill="black"/>
<path d="M54.6505 5.89971C53.0655 5.89971 51.6608 6.65736 50.7666 7.98524V2.11943H49.3769V16.4031H50.7656V14.5928C51.6449 15.8937 53.0495 16.6364 54.6495 16.6364C57.5107 16.6364 59.668 14.3336 59.668 11.279C59.669 8.21154 57.5107 5.89971 54.6505 5.89971ZM58.3012 11.299C58.3012 13.6098 56.6862 15.3524 54.5449 15.3524C52.3915 15.3524 50.7666 13.6098 50.7666 11.299C50.7666 8.99012 52.4264 7.18173 54.5449 7.18173C56.6862 7.18273 58.3012 8.95224 58.3012 11.299Z" fill="black"/>
<path d="M65.1909 10.5044C63.8251 10.0817 62.6457 9.71687 62.6457 8.60731C62.6457 7.69115 63.534 7.07606 64.8549 7.07606C66.0891 7.07606 66.8547 7.41301 67.5007 8.24045L67.5396 8.29029L68.4507 7.4499L68.4218 7.40803C67.7579 6.43505 66.4838 5.89871 64.834 5.89871C62.3925 5.89871 61.2989 7.26946 61.2989 8.62825C61.2989 10.5553 63.0674 11.1165 64.6286 11.611C66.0013 12.0466 67.2973 12.4574 67.2973 13.6935C67.2973 14.7822 66.4021 15.4581 64.9606 15.4581C63.6197 15.4581 62.4783 14.9566 61.8283 14.0823L61.7874 14.0275L60.8762 14.9387L60.9081 14.9796C61.7485 16.0462 63.1572 16.6344 64.8758 16.6344C67.1777 16.6344 68.6651 15.4631 68.6651 13.6507C68.6651 11.5801 66.8188 11.0089 65.1909 10.5044Z" fill="black"/>
<path d="M86.0312 6.13298V7.98225C85.14 6.63742 83.7613 5.89971 82.1263 5.89971C79.2652 5.89971 77.1079 8.20257 77.1079 11.2571C77.1079 14.3236 79.2652 16.6354 82.1263 16.6354C83.7463 16.6354 85.125 15.8828 86.0312 14.511V16.4021H87.399V6.13298H86.0312ZM86.0312 11.2362C86.0312 13.5829 84.4162 15.3534 82.2749 15.3534C80.1086 15.3534 78.4757 13.5839 78.4757 11.2362C78.4757 8.92532 80.1086 7.18273 82.2749 7.18273C84.4162 7.18273 86.0312 8.92532 86.0312 11.2362Z" fill="black"/>
<path d="M105.612 5.89971C102.726 5.89971 100.465 8.25341 100.465 11.2571C100.465 14.2727 102.725 16.6354 105.612 16.6354C108.497 16.6354 110.758 14.2727 110.758 11.2571C110.757 8.25241 108.497 5.89971 105.612 5.89971ZM109.389 11.2362C109.389 13.5829 107.774 15.3534 105.632 15.3534C103.466 15.3534 101.833 13.5839 101.833 11.2362C101.833 8.92532 103.466 7.18273 105.632 7.18273C107.774 7.18273 109.389 8.92532 109.389 11.2362Z" fill="black"/>
<path d="M116.928 5.89971C115.589 5.89971 114.447 6.47094 113.765 7.47482V6.13298H112.377V16.4031H113.765V10.304C113.765 8.35011 114.861 7.18372 116.695 7.18372C118.529 7.18372 119.625 8.35011 119.625 10.304V16.4031H120.993V10.0708C120.993 7.53663 119.398 5.89971 116.928 5.89971Z" fill="black"/>
<path d="M98.8455 6.13298H97.4568V16.4031H98.8455V6.13298Z" fill="black"/>
<path d="M98.8455 2.11943H97.4568V3.50812H98.8455V2.11943Z" fill="black"/>
<path d="M95.0303 7.52168V6.13298H92.4872V2.11943H91.0975V6.13298H89.8255V7.52168H91.0975V16.4031H95.0303V15.0134H92.4872V7.52168H95.0303Z" fill="black"/>
<path d="M75.4889 7.52168V6.13298H72.9448V2.11943H71.5561V6.13298H70.2841V7.52168H71.5561V16.4031H75.4889V15.0134H72.9448V7.52168H75.4889Z" fill="black"/>
</svg>
